RBDS024runT35_grf
version=1
nRows=24
nColumns=19
inDegrees=no
endheader
time	ground_force_r_vx	ground_force_r_vy	ground_force_r_vz	ground_force_r_px	ground_force_r_py	ground_force_r_pz	ground_force_r_mx	ground_force_r_my	ground_force_r_mz	ground_force_l_vx	ground_force_l_vy	ground_force_l_vz	ground_force_l_px	ground_force_l_py	ground_force_l_pz	ground_force_l_mx	ground_force_l_my	ground_force_l_mz
      7.49900000	   -233.57796583	   1573.43398479	    -24.60346743	      2.28462973	      0.00000000	      1.03555886	      0.00000000	     11.94412132	     -0.00000000	      0.00000000	      0.00000000	      0.00000000	      0.00000000	      0.00000000	      0.00000000	      0.00000000	      0.00000000	      0.00000000
      7.50000000	   -235.80500310	   1588.92484613	    -23.74100974	      2.28244496	      0.00000000	      1.03529517	      0.00000000	     12.20296701	     -0.00000000	      0.00000000	      0.00000000	      0.00000000	      0.00000000	      0.00000000	      0.00000000	      0.00000000	      0.00000000	      0.00000000
      7.50100000	   -237.48342476	   1603.36277141	    -22.84746156	      2.28014903	      0.00000000	      1.03505331	      0.00000000	     12.44401383	     -0.00000000	      0.00000000	      0.00000000	      0.00000000	      0.00000000	      0.00000000	      0.00000000	      0.00000000	      0.00000000	      0.00000000
      7.50200000	   -239.16184642	   1617.80069670	    -21.95391338	      2.27785311	      0.00000000	      1.03481146	      0.00000000	     12.68506065	     -0.00000000	      0.00000000	      0.00000000	      0.00000000	      0.00000000	      0.00000000	      0.00000000	      0.00000000	      0.00000000	      0.00000000
      7.50300000	   -240.84026808	   1632.23862198	    -21.06036521	      2.27555718	      0.00000000	      1.03456960	      0.00000000	     12.92610746	     -0.00000000	      0.00000000	      0.00000000	      0.00000000	      0.00000000	      0.00000000	      0.00000000	      0.00000000	      0.00000000	      0.00000000
      7.50400000	   -242.12224604	   1646.09435184	    -20.16763206	      2.27319094	      0.00000000	      1.03434309	      0.00000000	     13.15377373	     -0.00000000	      0.00000000	      0.00000000	      0.00000000	      0.00000000	      0.00000000	      0.00000000	      0.00000000	      0.00000000	      0.00000000
      7.50500000	   -243.20600214	   1659.65898398	    -19.27530642	      2.27078953	      0.00000000	      1.03412424	      0.00000000	     13.37474973	     -0.00000000	      0.00000000	      0.00000000	      0.00000000	      0.00000000	      0.00000000	      0.00000000	      0.00000000	      0.00000000	      0.00000000
      7.50600000	   -244.28975825	   1673.22361612	    -18.38298078	      2.26838813	      0.00000000	      1.03390540	      0.00000000	     13.59572572	     -0.00000000	      0.00000000	      0.00000000	      0.00000000	      0.00000000	      0.00000000	      0.00000000	      0.00000000	      0.00000000	      0.00000000
      7.50700000	   -245.16251821	   1686.54649223	    -17.49987776	      2.26595393	      0.00000000	      1.03369449	      0.00000000	     13.80947294	     -0.00000000	      0.00000000	      0.00000000	      0.00000000	      0.00000000	      0.00000000	      0.00000000	      0.00000000	      0.00000000	      0.00000000
      7.50800000	   -245.61328585	   1699.38585626	    -16.63521998	      2.26345416	      0.00000000	      1.03349944	      0.00000000	     14.00876259	     -0.00000000	      0.00000000	      0.00000000	      0.00000000	      0.00000000	      0.00000000	      0.00000000	      0.00000000	      0.00000000	      0.00000000
      7.50900000	   -246.06405350	   1712.22522029	    -15.77056220	      2.26095440	      0.00000000	      1.03330439	      0.00000000	     14.20805225	     -0.00000000	      0.00000000	      0.00000000	      0.00000000	      0.00000000	      0.00000000	      0.00000000	      0.00000000	      0.00000000	      0.00000000
      7.51000000	   -246.51482115	   1725.06458432	    -14.90590443	      2.25845463	      0.00000000	      1.03310935	      0.00000000	     14.40734191	     -0.00000000	      0.00000000	      0.00000000	      0.00000000	      0.00000000	      0.00000000	      0.00000000	      0.00000000	      0.00000000	      0.00000000
      7.51100000	   -246.30358616	   1737.28936574	    -14.08912483	      2.25586484	      0.00000000	      1.03293844	      0.00000000	     14.58394363	     -0.00000000	      0.00000000	      0.00000000	      0.00000000	      0.00000000	      0.00000000	      0.00000000	      0.00000000	      0.00000000	      0.00000000
      7.51200000	   -246.09235117	   1749.51414717	    -13.27234524	      2.25327505	      0.00000000	      1.03276754	      0.00000000	     14.76054536	     -0.00000000	      0.00000000	      0.00000000	      0.00000000	      0.00000000	      0.00000000	      0.00000000	      0.00000000	      0.00000000	      0.00000000
      7.51300000	   -245.88111618	   1761.73892859	    -12.45556564	      2.25068526	      0.00000000	      1.03259664	      0.00000000	     14.93714709	     -0.00000000	      0.00000000	      0.00000000	      0.00000000	      0.00000000	      0.00000000	      0.00000000	      0.00000000	      0.00000000	      0.00000000
      7.51400000	   -245.21617469	   1773.60089493	    -11.68006227	      2.24804165	      0.00000000	      1.03244178	      0.00000000	     15.09831200	     -0.00000000	      0.00000000	      0.00000000	      0.00000000	      0.00000000	      0.00000000	      0.00000000	      0.00000000	      0.00000000	      0.00000000
      7.51500000	   -244.32437994	   1785.28145373	    -10.92519700	      2.24537113	      0.00000000	      1.03229495	      0.00000000	     15.25175850	     -0.00000000	      0.00000000	      0.00000000	      0.00000000	      0.00000000	      0.00000000	      0.00000000	      0.00000000	      0.00000000	      0.00000000
      7.51600000	   -243.43258520	   1796.96201253	    -10.17033174	      2.24270060	      0.00000000	      1.03214811	      0.00000000	     15.40520500	     -0.00000000	      0.00000000	      0.00000000	      0.00000000	      0.00000000	      0.00000000	      0.00000000	      0.00000000	      0.00000000	      0.00000000
      7.51700000	   -242.31146046	   1808.47104456	     -9.43886250	      2.24000648	      0.00000000	      1.03200913	      0.00000000	     15.55092039	     -0.00000000	      0.00000000	      0.00000000	      0.00000000	      0.00000000	      0.00000000	      0.00000000	      0.00000000	      0.00000000	      0.00000000
      7.51800000	   -240.73167573	   1819.63702307	     -8.75418533	      2.23726517	      0.00000000	      1.03188584	     -0.00000000	     15.68117354	     -0.00000000	      0.00000000	      0.00000000	      0.00000000	      0.00000000	      0.00000000	      0.00000000	      0.00000000	      0.00000000	      0.00000000
      7.51900000	   -239.15189099	   1830.80300158	     -8.06950815	      2.23452386	      0.00000000	      1.03176256	     -0.00000000	     15.81142670	     -0.00000000	      0.00000000	      0.00000000	      0.00000000	      0.00000000	      0.00000000	      0.00000000	      0.00000000	      0.00000000	      0.00000000
      7.52000000	   -237.57210626	   1841.96898008	     -7.38483098	      2.23178254	      0.00000000	      1.03163928	     -0.00000000	     15.94167985	     -0.00000000	      0.00000000	      0.00000000	      0.00000000	      0.00000000	      0.00000000	      0.00000000	      0.00000000	      0.00000000	      0.00000000
      7.52100000	   -235.30821523	   1852.61120020	     -6.77351694	      2.22898072	      0.00000000	      1.03153861	     -0.00000000	     16.04901225	     -0.00000000	      0.00000000	      0.00000000	      0.00000000	      0.00000000	      0.00000000	      0.00000000	      0.00000000	      0.00000000	      0.00000000
      7.52200000	   -233.04432420	   1863.25342032	     -6.16220290	      2.22617889	      0.00000000	      1.03143794	     -0.00000000	     16.15634465	     -0.00000000	      0.00000000	      0.00000000	      0.00000000	      0.00000000	      0.00000000	      0.00000000	      0.00000000	      0.00000000	      0.00000000
